PathFileType	4	(X/Y/Z)	C:/Users/opensim2020/Desktop/walking_exp_matlab/subject02_walking11_straight_02.trc																																																																																																																												
DataRate	CameraRate	NumFrames	NumMarkers	Units	OrigDataRate	OrigDataStartFrame	OrigNumFrames																																																																																																																								
100	100	7	42	mm	100	1806	230																																																																																																																								
Frame#	Time	LFHD			RFHD			LBHD			RBHD			C7			T10			CLAV			STRN			RBAK			LSHO			LUPA			LELB			LFRM			LWRA			LWRB			LFIN			RSHO			RUPA			RELB			RFRM			RWRA			RWRB			RFIN			LASI			RASI			LPSI			RPSI			LTHI			LKNE			LTIB			LANK			LHEE			LTOE			RTHI			RKNE			RTIB			RANK			RHEE			RTOE			*39			*40			*41		
		X1	Y1	Z1	X2	Y2	Z2	X3	Y3	Z3	X4	Y4	Z4	X5	Y5	Z5	X6	Y6	Z6	X7	Y7	Z7	X8	Y8	Z8	X9	Y9	Z9	X10	Y10	Z10	X11	Y11	Z11	X12	Y12	Z12	X13	Y13	Z13	X14	Y14	Z14	X15	Y15	Z15	X16	Y16	Z16	X17	Y17	Z17	X18	Y18	Z18	X19	Y19	Z19	X20	Y20	Z20	X21	Y21	Z21	X22	Y22	Z22	X23	Y23	Z23	X24	Y24	Z24	X25	Y25	Z25	X26	Y26	Z26	X27	Y27	Z27	X28	Y28	Z28	X29	Y29	Z29	X30	Y30	Z30	X31	Y31	Z31	X32	Y32	Z32	X33	Y33	Z33	X34	Y34	Z34	X35	Y35	Z35	X36	Y36	Z36	X37	Y37	Z37	X38	Y38	Z38	X39	Y39	Z39	X40	Y40	Z40	X41	Y41	Z41	X42	Y42	Z42
																																																																																																																															
173	1.72	451.05652	1713.22485	965.11523	436.09305	1689.17383	1105.83948	310.35748	1664.87903	943.02527	282.5968	1641.63513	1082.74683	234.61324	1519.82605	1004.30267	171.24245	1242.9364	1002.29675	371.21616	1444.9967	999.79248	415.81604	1271.61853	1007.29828	163.82028	1343.44055	1057.71326	316.27975	1498.23853	830.20709	356.51373	1312.01892	731.50879	408.96823	1180.33923	705.90631	488.05807	1071.21973	701.5238	589.90082	991.99146	750.53235	558.77838	971.82697	708.48761	610.90991	932.06177	709.4751	295.58948	1474.31714	1193.87341	242.52657	1284.12634	1266.83179	242.92216	1137.8927	1283.55823	267.10397	1021.13824	1308.9812	319.18808	895.07813	1301.93799	266.79779	891.36389	1322.52063	303.27512	828.92389	1333.24719	401.33401	978.5918	871.37115	402.05511	968.77893	1128.08521	190.82152	1023.15009	953.77185	186.14946	1019.93439	1068.00232	302.13263	670.53253	828.45978	241.20642	473.61203	861.13861	157.28456	296.11227	865.98193	131.43188	73.55755	906.19238	95.50146	47.302	959.64178	284.58444	31.34583	884.14282	382.89313	673.03674	1218.65039	459.93759	478.87393	1200.18469	465.20844	294.21893	1225.53308	498.89529	101.35966	1213.09033	484.64587	35.74227	1160.04785	656.84235	81.76805	1235.63708	356.46613	1793.22974	1050.42639	NaN	NaN	NaN	NaN	NaN	NaN
174	1.73	459.0029	1712.76013	967.27325	443.68378	1687.96912	1107.88049	318.37262	1664.27417	944.36102	290.05942	1640.32788	1084.49854	242.49391	1518.68665	1005.5271	179.28664	1241.83594	1003.60529	379.21628	1444.02698	1001.1629	423.77475	1270.63867	1008.50433	171.66327	1342.18127	1058.66016	324.35834	1497.49683	831.61169	364.72592	1311.39587	732.65002	417.56857	1179.84534	706.79791	496.40897	1071.24707	702.72137	600.021	993.21942	752.19672	569.09442	972.34827	710.31287	621.84741	933.45416	711.47522	303.19431	1472.85559	1195.25769	249.57417	1282.6123	1267.07959	249.44603	1136.35938	1284.42957	273.431	1019.76642	1309.7229	325.39178	893.70868	1302.8335	272.9332	889.98529	1323.16199	309.30338	827.51691	1333.94116	408.62201	977.32709	871.93896	410.53943	967.823	1128.76819	198.55379	1022.10114	955.46381	194.25046	1018.90808	1069.73718	306.94833	669.79669	829.23834	244.99345	473.31213	861.90924	159.36789	296.62515	866.64301	131.64565	74.14865	906.38477	95.61097	48.06089	959.99158	284.63635	31.29401	884.05774	389.51712	671.52057	1219.45264	467.5954	477.84473	1200.2804	479.20462	293.81448	1226.92627	518.88873	101.72768	1215.29138	505.64407	35.53641	1163.12659	678.05548	86.55072	1234.59595	364.11826	1792.11096	1052.52966	NaN	NaN	NaN	NaN	NaN	NaN
175	1.74	466.7149	1711.5708	969.17358	451.29996	1686.74866	1109.96851	326.37271	1663.14185	946.5495	297.88727	1639.26111	1086.22949	250.40552	1517.57349	1007.03674	187.31139	1240.71521	1005.04047	387.21823	1443.05786	1002.74518	431.72333	1269.5166	1009.72906	179.54027	1340.81885	1060.23633	332.49179	1496.7135	833.11011	372.7309	1310.66138	733.84851	425.78314	1179.18323	707.92377	506.05679	1071.11646	704.23499	609.49896	994.01788	753.8576	578.8938	973.00586	712.15521	631.64453	934.23602	713.30103	310.74411	1471.59668	1196.69617	256.61127	1281.39819	1268.61877	256.27579	1135.24146	1285.50293	279.96332	1018.35699	1310.62231	331.86307	892.2088	1303.77563	279.26471	888.54236	1323.84363	315.57642	825.80005	1334.59033	415.83691	975.87695	872.51404	419.16696	966.83337	1129.57922	206.34044	1021	957.31287	202.51302	1017.82025	1071.64417	312.22421	669.01166	830.13763	248.99564	472.93073	862.83313	161.52818	297.17514	867.38715	131.98112	74.82206	906.56238	95.9493	48.95354	959.97559	284.76706	31.29925	883.89984	396.22925	670.09204	1220.48669	475.45563	476.85556	1200.48877	492.44357	293.43924	1228.08203	537.67419	102.2985	1217.3595	525.15442	35.11095	1165.33008	697.77631	90.96632	1233.8363	371.80054	1791.17261	1054.73669	NaN	NaN	NaN	NaN	NaN	NaN
176	1.75	474.82779	1710.59839	971.8548	458.94162	1685.61047	1112.23303	333.99335	1662.52612	948.8714	305.61557	1638.0072	1088.06897	258.38965	1516.35181	1008.61383	195.42851	1239.5376	1006.68298	395.24744	1442.04077	1004.41327	439.936	1268.51489	1011.09027	187.44083	1339.77087	1061.85144	340.60016	1495.8866	834.75311	380.7872	1310.0885	735.14813	433.78961	1178.35999	709.18793	514.67664	1070.6803	705.84503	618.5907	994.46851	755.64648	587.73523	972.60779	714.17847	641.27307	934.73712	715.28589	318.48782	1470.08362	1198.34729	263.85077	1280.09473	1269.92957	263.22034	1133.90686	1286.58398	286.63892	1016.91992	1311.62012	338.38828	890.71057	1304.87598	285.76654	887.10248	1324.76843	321.86234	824.40131	1335.51831	423.13467	974.60974	873.32263	427.96036	965.86066	1130.38501	214.27394	1019.75031	959.3158	210.92561	1016.66656	1073.64917	317.56705	668.2699	831.13568	253.10625	472.69922	863.59595	163.98546	297.76984	868.04315	132.30472	75.59999	906.7229	96.10862	49.77392	960.33331	284.78503	31.35969	883.67401	403.39899	668.69397	1221.85535	483.43167	475.71658	1200.85803	504.98401	293.00757	1229.11829	554.82275	102.78188	1218.76941	543.06384	35.46201	1167.1814	715.57422	94.66039	1233.03223	379.47195	1789.77722	1056.94946	NaN	NaN	NaN	NaN	NaN	NaN
177	1.76	482.48624	1709.92053	973.86469	466.45831	1684.35437	1114.15942	341.95758	1661.60632	950.90479	313.30325	1636.68689	1090.07983	266.60992	1515.35437	1010.62451	203.6937	1238.3269	1008.47113	403.44	1441.03394	1006.14343	448.33652	1267.62952	1012.52527	195.55188	1338.44946	1063.34045	348.74069	1495.06482	836.50067	388.93457	1308.84558	736.88702	441.6185	1177.47839	710.65729	522.54144	1069.79797	707.58289	627.39032	994.59778	757.58691	596.36096	972.49329	716.17908	649.99902	934.74255	717.44324	326.27902	1468.62646	1199.97083	271.20541	1278.85645	1271.53088	270.47729	1132.48816	1287.75073	293.53806	1015.46771	1312.755	345.19086	889.19049	1306.08508	292.23636	885.68597	1325.80334	328.43671	822.66357	1336.42371	430.63333	973.33392	874.14917	436.82916	964.86719	1131.35876	222.28445	1018.4549	961.43286	219.3748	1015.56708	1075.85022	323.30679	667.59595	832.26154	257.4108	472.43454	864.52344	166.52316	298.42969	868.73993	132.6949	76.4986	906.77112	96.60519	50.87479	960.42896	284.84866	31.30487	883.57428	410.96017	667.48505	1223.12268	491.70157	474.57507	1201.45386	516.74719	292.48608	1230.03638	570.29065	103.02982	1219.70898	559.50018	35.51091	1168.11816	731.60767	97.36984	1232.84753	387.13641	1788.76074	1059.3728	NaN	NaN	NaN	NaN	NaN	NaN
178	1.77	490.49432	1708.80762	976.44159	474.29694	1683.34155	1116.80371	349.84409	1660.5509	953.2218	321.18802	1635.48633	1092.15503	274.45551	1514.11975	1012.26923	212.01949	1237.14392	1010.45703	411.61069	1440.02588	1008.02032	456.68637	1266.65564	1014.03558	203.78635	1336.92908	1065.01465	356.93085	1494.22009	838.3623	396.50439	1307.9834	738.47437	449.18716	1176.44177	712.30475	530.38055	1068.91406	709.53992	635.43896	994.42969	759.38654	603.86987	971.55078	718.64795	658.64142	934.47217	719.66229	334.17703	1467.18518	1201.84241	278.75928	1277.28052	1272.55383	277.9447	1131.08069	1288.8783	300.62689	1013.95032	1313.95276	351.95282	887.52405	1307.25464	298.98764	884.09692	1326.78491	335.0899	821.0108	1337.53894	438.23193	972.02173	874.97577	445.82294	963.90857	1132.3457	230.34326	1017.15063	963.77338	227.99689	1014.46484	1078.15369	328.39191	666.85492	833.03406	261.94916	472.21136	865.46167	169.18962	299.23453	869.44214	132.90915	77.47459	906.95758	96.72001	52.17838	960.60919	284.92557	31.29271	883.47211	419.24924	666.37103	1224.41785	500.43231	473.42328	1202.22449	527.7381	291.72556	1230.70728	583.7384	102.92918	1220.04431	573.72717	35.51852	1168.89197	745.45148	98.77407	1233.04382	394.74771	1787.67981	1061.8396	NaN	NaN	NaN	NaN	NaN	NaN
179	1.78	498.42438	1708.05933	979.06293	482.0433	1682.28601	1119.2937	357.83725	1659.63953	955.46954	328.97702	1634.18872	1094.40222	282.595	1512.98206	1014.39673	220.38786	1235.92432	1012.49103	419.90497	1439.04468	1009.93378	465.12643	1265.66223	1015.61023	212.01971	1335.87305	1066.9259	365.13824	1493.37476	840.26398	404.44998	1307.14978	740.35461	456.62015	1175.23328	714.09546	537.62958	1067.93213	711.50195	643.13953	993.55243	761.61176	612.79742	970.74091	720.81036	665.95782	933.54645	721.86237	342.12955	1465.88147	1203.85706	286.47946	1276.06543	1274.56335	285.58279	1129.62622	1290.44971	307.9642	1012.43463	1315.24683	359.09488	885.99982	1308.77588	306.1044	882.67365	1328.12793	341.90143	819.56506	1338.92944	445.89343	970.64667	876.06525	454.96451	962.89484	1133.55127	238.56197	1015.82208	966.24841	236.73956	1013.34363	1080.5896	334.03915	666.45612	834.16241	266.64987	472.01999	866.49957	171.99202	300.11746	870.23566	133.53128	78.54382	906.9613	97.06415	53.60675	960.62891	284.99747	31.23957	883.36859	428.55069	665.45386	1226.02612	509.55215	472.34561	1203.23328	537.9129	290.75992	1231.28931	595.40472	102.4341	1220.21667	586.22577	34.92277	1168.8252	757.16547	98.89976	1233.6156	402.52921	1786.61328	1064.44788	NaN	NaN	NaN	NaN	NaN	NaN
